# xmcd CD database file
#
# Track frame offsets:
#	150
#	11893
#	24053
#	37528
#	51875
#	64065
#	75193
#	87020
#	101115
#	112488
#	123368
#	136118
#	148333
#	160125
#	172835
#	185808
#
# Disc length: 2652 seconds
#
# Revision: 0
# Processed by: cddbd v1.4PL0 Copyright (c) Steve Scherf et al.
# Submitted via: CDex 1.50beta9
#
DISCID=ca0a5a10
DTITLE=Howlin'Wolf - The Best Blues
DYEAR=1900
DGENRE=Blues
TTITLE0=Howlin' For My Baby 
TTITLE1=Chocolate Drop 
TTITLE2=Everybody's In The Mood 
TTITLE3=Decoration Day 
TTITLE4=Dorothy Mae 
TTITLE5=Highway Man 
TTITLE6=Oh Red 
TTITLE7=Smokestack Lightning 
TTITLE8=Sittin On The Top Of The World 
TTITLE9=Wang Dang Doodle 
TTITLE10=Back Door Man 
TTITLE11=Spoonful 
TTITLE12=Built For Comfort 
TTITLE13=Killing Floor 
TTITLE14=Evil 
TTITLE15=California Blues 
EXTD=
EXTT0=
EXTT1=
EXTT2=
EXTT3=
EXTT4=
EXTT5=
EXTT6=
EXTT7=
EXTT8=
EXTT9=
EXTT10=
EXTT11=
EXTT12=
EXTT13=
EXTT14=
EXTT15=
PLAYORDER=
